# Exported from Wings 3D 1.5.4
mtllib crystalOne.mtl
o crystal body
#28 vertices, 26 faces
v -9.2535297e-2 0.16004402 -6.4243842e-2
v -9.2535297e-2 0.16004402 8.2190627e-2
v 5.3899172e-2 0.16004402 -6.4243842e-2
v 5.3899172e-2 0.16004402 8.2190627e-2
v -9.2535018e-2 1.6653345e-16 8.2190627e-2
v -9.2535018e-2 1.6653345e-16 -6.4243842e-2
v 5.3899451e-2 1.6653345e-16 -6.4243842e-2
v 5.3899451e-2 1.6653345e-16 8.2190627e-2
v -9.2535297e-2 0.62387626 -6.4243842e-2
v -9.2535297e-2 0.62387626 8.2190627e-2
v 5.3899172e-2 0.62387626 -6.4243842e-2
v 5.3899172e-2 0.62387626 8.2190627e-2
v -8.4543729e-2 0.36526845 0.45284762
v -8.3986749e-2 0.45646089 0.36305085
v 4.3438572e-2 0.36503522 0.45340460
v 4.3995552e-2 0.45622767 0.36360783
v 0.42674828 0.36253306 -5.4473203e-2
v 0.42649705 0.36263918 7.3510232e-2
v 0.33751852 0.45428174 -5.4724438e-2
v 0.33726729 0.45438786 7.3258997e-2
v -8.3795944e-2 0.45482820 -0.34705933
v -8.4206200e-2 0.36319161 -0.43640361
v 4.4187007e-2 0.45465521 -0.34746958
v 4.3776751e-2 0.36301862 -0.43681387
v -0.37344008 0.45662774 -5.4533856e-2
v -0.37304273 0.45679386 7.3449145e-2
v -0.46334123 0.36553735 -5.4136508e-2
v -0.46294388 0.36570346 7.3846493e-2
vn -0.56224985 0.60540335 -0.56334882
vn -0.56201396 0.60668211 0.56220737
vn 0.56316903 0.60493352 -0.56293523
vn 0.56355505 0.60505549 0.56241760
vn -0.50299842 -0.70335376 0.50228088
vn -0.50395618 -0.70410876 -0.50025896
vn 0.50088873 -0.70532234 -0.50162822
vn 0.49997853 -0.70449004 0.50370155
vn -0.57735027 0.57735027 -0.57735027
vn -0.57735027 0.57735027 0.57735027
vn 0.57735027 0.57735027 -0.57735027
vn 0.57735027 0.57735027 0.57735027
vn -0.57421182 -1.5581927e-3 0.81870529
vn -0.58156612 0.81349567 2.3761085e-3
vn 0.56915732 -2.5411039e-3 0.82222472
vn 0.58215407 0.81305015 6.7890377e-3
vn 0.82125597 -7.2257832e-3 -0.57051418
vn 0.81967974 -6.7667074e-3 0.57278211
vn 1.1117179e-2 0.81332287 -0.58170639
vn 9.1652443e-3 0.81353466 0.58144420
vn -0.58141774 0.81357139 -7.4165679e-3
vn -0.57351062 -5.6275467e-3 -0.81917879
vn 0.58184513 0.81323022 -1.0623048e-2
vn 0.56980021 -6.3686740e-3 -0.82175858
vn -5.1408189e-3 0.81308218 -0.58212623
vn -1.9874530e-3 0.81339795 0.58170425
vn -0.82171979 -1.4939889e-3 -0.56988978
vn -0.81920779 -7.9411865e-4 0.57349627
g crystal body_default
usemtl default
s 1
f 1//1 2//2 10//10 9//9
f 1//1 21//21 22//22 6//6
f 1//1 25//25 26//26 2//2
f 2//2 4//4 12//12 10//10
f 2//2 14//14 16//16 4//4
f 2//2 26//26 28//28 5//5
f 3//3 19//19 17//17 7//7
f 3//3 23//23 21//21 1//1
f 4//4 16//16 15//15 8//8
f 4//4 20//20 19//19 3//3
f 5//5 13//13 14//14 2//2
f 5//5 28//28 27//27 6//6
f 6//6 7//7 8//8 5//5
f 6//6 22//22 24//24 7//7
f 6//6 27//27 25//25 1//1
f 7//7 17//17 18//18 8//8
f 7//7 24//24 23//23 3//3
f 8//8 15//15 13//13 5//5
f 8//8 18//18 20//20 4//4
f 9//9 11//11 3//3 1//1
f 11//11 9//9 10//10 12//12
f 11//11 12//12 4//4 3//3
f 14//14 13//13 15//15 16//16
f 17//17 19//19 20//20 18//18
f 21//21 23//23 24//24 22//22
f 26//26 25//25 27//27 28//28
