# Exported from Wings 3D 1.5.4
mtllib pylon.mtl
o pylon
#112 vertices, 104 faces
v -0.23835411 2.7530971e-3 -0.74049464
v 0.23702711 3.9121395e-3 -0.74020123
v -0.23713163 0.11014684 -0.73765798
v 0.23828302 0.10720782 -0.73736875
v -0.21283690 -5.9814584e-3 -0.66461584
v 0.21095251 -3.5689088e-3 -0.66426421
v -0.21104410 0.11014684 -0.66424600
v 0.21293251 0.11630535 -0.66394242
v -8.2115938e-2 -0.13708931 -0.74424235
v 8.2564056e-2 -0.13971730 -0.74422376
v 8.1231520e-2 0.24660866 -0.73363360
v -8.2653309e-2 0.24880651 -0.73366354
v -7.7603339e-2 -0.12624026 -0.63269810
v 7.6352274e-2 -0.12714279 -0.63419692
v -7.7313413e-2 0.23827656 -0.63279483
v 7.7233566e-2 0.23750835 -0.63203892
v 8.1212032e-2 -0.35909121 -0.75023851
v -7.9096373e-2 -0.35907368 -0.75032626
v -7.7631992e-2 -0.35939424 -0.71844666
v 7.9359503e-2 -0.35941962 -0.71836636
v -5.0519365e-2 0.40954106 -0.72923942
v 4.9280983e-2 0.40928513 -0.72919151
v 4.5100588e-2 0.40803824 -0.65194012
v -4.5229201e-2 0.40805549 -0.65196805
v 4.3280800e-2 0.20649899 -0.60136903
v -4.3280800e-2 0.20649899 -0.60136903
v -4.3280800e-2 -9.6385118e-2 -0.60295930
v 4.3280800e-2 -9.6385118e-2 -0.60295930
v -0.23835405 -1.6109426e-3 0.74060750
v 0.23702710 3.9120528e-3 0.74019806
v -0.23713169 0.11014398 0.73755338
v 0.23828302 0.10720799 0.73737504
v -0.21288430 -1.6126865e-3 0.66442644
v 0.21095251 -3.5689088e-3 0.66426421
v -0.21116298 0.11014550 0.66372965
v 0.21293251 0.11630535 0.66394242
v -8.2115948e-2 -0.13708981 0.74422420
v 8.2564046e-2 -0.13971777 0.74420644
v 8.1231530e-2 0.24660915 0.73365162
v -8.2653299e-2 0.24880698 0.73368070
v -7.7389657e-2 -0.12624223 0.63359326
v 7.6352274e-2 -0.12714279 0.63419692
v -7.7360812e-2 0.23827821 0.63260543
v 7.7233566e-2 0.23750835 0.63203892
v 8.1212011e-2 -0.35909223 0.75020111
v -7.9096393e-2 -0.35907473 0.75028781
v -7.7631992e-2 -0.35939424 0.71844666
v 7.9359503e-2 -0.35941962 0.71836636
v -5.0519347e-2 0.40954193 0.72927149
v 4.9281000e-2 0.40928602 0.72922420
v 4.5100588e-2 0.40803824 0.65194012
v -4.5229201e-2 0.40805549 0.65196805
v 4.3280800e-2 0.20649899 0.60136903
v -4.3280800e-2 0.20649899 0.60136903
v -4.3280800e-2 -9.6385118e-2 0.60295930
v 4.3280800e-2 -9.6385118e-2 0.60295930
v 0.74060750 -1.6109426e-3 -0.23835405
v 0.74019806 3.9120528e-3 0.23702710
v 0.73755338 0.11014398 -0.23713169
v 0.73737504 0.10720799 0.23828302
v 0.66442644 -1.6126865e-3 -0.21288430
v 0.66426421 -3.5689088e-3 0.21095251
v 0.66372965 0.11014550 -0.21116298
v 0.66394242 0.11630535 0.21293251
v 0.74422420 -0.13708981 -8.2115948e-2
v 0.74420644 -0.13971777 8.2564046e-2
v 0.73365162 0.24660915 8.1231530e-2
v 0.73368070 0.24880698 -8.2653299e-2
v 0.63359326 -0.12624223 -7.7389657e-2
v 0.63419692 -0.12714279 7.6352274e-2
v 0.63260543 0.23827821 -7.7360812e-2
v 0.63203892 0.23750835 7.7233566e-2
v 0.75020111 -0.35909223 8.1212011e-2
v 0.75028781 -0.35907473 -7.9096393e-2
v 0.71844666 -0.35939424 -7.7631992e-2
v 0.71836636 -0.35941962 7.9359503e-2
v 0.72927149 0.40954193 -5.0519347e-2
v 0.72922420 0.40928602 4.9281000e-2
v 0.65194012 0.40803824 4.5100588e-2
v 0.65196805 0.40805549 -4.5229201e-2
v 0.60136903 0.20649899 4.3280800e-2
v 0.60136903 0.20649899 -4.3280800e-2
v 0.60295930 -9.6385118e-2 -4.3280800e-2
v 0.60295930 -9.6385118e-2 4.3280800e-2
v -0.74060750 -1.6109426e-3 -0.23835405
v -0.74019806 3.9120528e-3 0.23702710
v -0.73755338 0.11014398 -0.23713169
v -0.73737504 0.10720799 0.23828302
v -0.66442644 -1.6126865e-3 -0.21288430
v -0.66426421 -3.5689088e-3 0.21095251
v -0.66372965 0.11014550 -0.21116298
v -0.66394242 0.11630535 0.21293251
v -0.74422420 -0.13708981 -8.2115948e-2
v -0.74420644 -0.13971777 8.2564046e-2
v -0.73365162 0.24660915 8.1231530e-2
v -0.73368070 0.24880698 -8.2653299e-2
v -0.63359326 -0.12624223 -7.7389657e-2
v -0.63419692 -0.12714279 7.6352274e-2
v -0.63260543 0.23827821 -7.7360812e-2
v -0.63203892 0.23750835 7.7233566e-2
v -0.75020111 -0.35909223 8.1212011e-2
v -0.75028781 -0.35907473 -7.9096393e-2
v -0.71844666 -0.35939424 -7.7631992e-2
v -0.71836636 -0.35941962 7.9359503e-2
v -0.72927149 0.40954193 -5.0519347e-2
v -0.72922420 0.40928602 4.9281000e-2
v -0.65194012 0.40803824 4.5100588e-2
v -0.65196805 0.40805549 -4.5229201e-2
v -0.60136903 0.20649899 4.3280800e-2
v -0.60136903 0.20649899 -4.3280800e-2
v -0.60295930 -9.6385118e-2 -4.3280800e-2
v -0.60295930 -9.6385118e-2 4.3280800e-2
vt 9.3370157e-3 0.85688355
vt 9.3370183e-3 0.85688346
vt 2.0073103e-2 0.33823258
vt 2.0957138e-2 0.43221486
vt 2.5375975e-2 0.98493830
vt 3.4278344e-2 0.71707740
vt 8.4254240e-2 0.98507972
vt 8.7290687e-2 0.85632596
vt 8.7290689e-2 0.85632587
vt 9.1842523e-2 0.69795034
vt 9.1842531e-2 0.69795034
vt 9.8968621e-2 0.85623093
vt 9.8968626e-2 0.85623102
vt 0.10618902 0.98481802
vt 0.13091982 1.0636175e-2
vt 0.13189376 0.22843318
vt 0.13189386 0.22843308
vt 0.13359722 0.54080032
vt 0.13359732 0.54080042
vt 0.15011721 0.71478900
vt 0.16260137 0.69005091
vt 0.16503157 0.98276271
vt 0.17689922 0.85425416
vt 0.17689922 0.85425425
vt 0.24760936 0.68967074
vt 0.27321277 9.9998025e-3
vt 0.27418682 0.22779671
vt 0.27418692 0.22779681
vt 0.27527732 0.54016680
vt 0.27527742 0.54016670
vt 0.29764190 0.53180168
vt 0.29764190 0.62650331
vt 0.33723629 4.3851299e-2
vt 0.33723638 4.3851263e-2
vt 0.33787266 0.18614425
vt 0.33787285 0.18614425
vt 0.37001642 8.0007671e-2
vt 0.37001652 8.0007636e-2
vt 0.37032809 0.14969613
vt 0.37032828 0.14969613
vt 0.38694074 0.43057664
vt 0.38698611 0.33659044
vt 0.43470036 0.23000000
vt 0.43470036 0.42131643
vt 0.43470036 0.73698855
vt 0.46142494 0.87757044
vt 0.54159870 0.87757044
vt 0.56832328 0.23000000
vt 0.56832328 0.42131643
vt 0.56832328 0.73698855
vt 0.60764190 0.24757044
vt 0.60764190 0.27446806
vt 0.60764190 0.29757044
vt 0.60764190 0.32446806
vt 0.60764190 0.34757044
vt 0.60764190 0.37446806
vt 0.60764190 0.39757044
vt 0.60764190 0.42446806
vt 0.61715007 7.9035349e-2
vt 0.61715026 7.9035348e-2
vt 0.61746064 0.14845796
vt 0.61746073 0.14845792
vt 0.64960628 4.2760763e-2
vt 0.64960646 4.2760762e-2
vt 0.65023999 0.18444079
vt 0.65024009 0.18444076
vt 0.70538174 0.53180168
vt 0.70538174 0.62650331
vt 0.74126482 0.24757044
vt 0.74126482 0.27446806
vt 0.74126482 0.29757044
vt 0.74126482 0.32446806
vt 0.74126482 0.34757044
vt 0.74126482 0.37446806
vt 0.74126482 0.39757044
vt 0.74126482 0.42446806
vt 0.77538174 0.46265456
vt 0.77538174 0.46258819
vt 0.77538174 0.55737709
vt 0.77538174 0.62279757
vt 0.77556884 0.36778647
vt 0.77796436 0.55732097
vt 0.78542025 1.9019101e-2
vt 0.79193122 0.19108075
vt 0.79193123 0.19108083
vt 0.79387757 0.34950981
vt 0.80962258 1.8501897e-2
vt 0.84275541 0.46250759
vt 0.84512554 0.46258819
vt 0.84533779 0.36785366
vt 0.84536291 0.55737709
vt 0.85357242 0.33010549
vt 0.85555550 0.55737709
vt 0.85555550 0.62279757
vt 0.87610385 0.19064209
vt 0.87610385 0.19064200
vt 0.87610385 0.19015089
vt 0.87610386 0.19015098
vt 0.87834196 0.36088870
vt 0.87834199 0.36088860
vt 0.87834199 0.36088860
vt 0.87958014 0.60802107
vt 0.87958016 0.60802097
vt 0.89707326 0.33083916
vt 0.94130293 1.8501897e-2
vt 0.94803045 0.36057694
vt 0.94900271 0.60771059
vt 0.94900274 0.60771050
vt 0.95705055 0.34935206
vt 0.96028108 0.19094407
vt 0.96028108 0.19094398
vt 0.96550845 1.8838559e-2
vn -0.87423509 -0.37991012 -0.30229341
vn 0.87672714 -0.38419374 -0.28938675
vn -0.87386288 0.40264017 -0.27247853
vn 0.86583870 0.39935277 -0.30139795
vn -0.75665499 -0.29869852 0.58159472
vn 0.75196955 -0.30348057 0.58518488
vn -0.75032735 0.29199612 0.59308274
vn 0.75792817 0.29324456 0.58271136
vn -0.49541950 -0.19905198 -0.84553996
vn 0.50397277 -0.19412494 -0.84162162
vn 0.48125490 0.29421480 -0.82573081
vn -0.49192822 0.29347458 -0.81968243
vn -0.54293741 -0.38291453 0.74739242
vn 0.54501646 -0.37800574 0.74837739
vn -0.53447196 0.35997277 0.76469558
vn 0.53923072 0.36669592 0.75813213
vn 0.58998804 -0.57912345 -0.56261011
vn -0.58556960 -0.57922645 -0.56710225
vn -0.51216014 -0.69844842 0.49986178
vn 0.51369528 -0.69282683 0.50607129
vn -0.53983056 0.67471627 -0.50332984
vn 0.54004874 0.67003233 -0.50931723
vn 0.50206904 0.66951665 0.54742500
vn -0.49999452 0.66700157 0.55237159
vn 0.25791136 0.26338017 0.92957658
vn -0.25271282 0.26397624 0.93083445
vn -0.25214504 -0.27138465 0.92885588
vn 0.25837135 -0.27328372 0.92658526
vn -0.87934432 -0.38022878 0.28666992
vn 0.87671535 -0.38422716 0.28937811
vn -0.87358659 0.40197325 0.27434279
vn 0.86584855 0.39931918 0.30141413
vn -0.74961835 -0.29668111 -0.59165247
vn 0.75197037 -0.30347169 -0.58518843
vn -0.75038471 0.29121987 -0.59339176
vn 0.75793012 0.29325250 -0.58270481
vn -0.49980628 -0.19956620 0.84283273
vn 0.50396503 -0.19420497 0.84160779
vn 0.48125729 0.29414153 0.82575552
vn -0.49175931 0.29350179 0.81977405
vn -0.54086190 -0.38161293 -0.74955985
vn 0.54446056 -0.37914166 -0.74820739
vn -0.53477260 0.35945261 -0.76473008
vn 0.53936669 0.36648240 -0.75813866
vn 0.58997402 -0.57916945 0.56257747
vn -0.58591302 -0.57954024 0.56642656
vn -0.51316915 -0.69707208 -0.50074738
vn 0.51288011 -0.69278666 -0.50695231
vn -0.53976293 0.67467510 0.50345753
vn 0.54006237 0.67000393 0.50934013
vn 0.50228059 0.66955209 -0.54718754
vn -0.49963115 0.66741221 -0.55220435
vn 0.25803870 0.26287769 -0.92968347
vn -0.25472958 0.26329231 -0.93047837
vn -0.25562186 -0.27441652 -0.92701296
vn 0.25776185 -0.27563873 -0.92605730
vn 0.28666992 -0.38022878 -0.87934432
vn 0.28937811 -0.38422716 0.87671535
vn 0.27434279 0.40197325 -0.87358659
vn 0.30141413 0.39931918 0.86584855
vn -0.59165247 -0.29668111 -0.74961835
vn -0.58518843 -0.30347169 0.75197037
vn -0.59339176 0.29121987 -0.75038471
vn -0.58270481 0.29325250 0.75793012
vn 0.84283273 -0.19956620 -0.49980628
vn 0.84160779 -0.19420497 0.50396503
vn 0.82575552 0.29414153 0.48125729
vn 0.81977405 0.29350179 -0.49175931
vn -0.74955985 -0.38161293 -0.54086190
vn -0.74820739 -0.37914166 0.54446056
vn -0.76473008 0.35945261 -0.53477260
vn -0.75813866 0.36648240 0.53936669
vn 0.56257747 -0.57916945 0.58997402
vn 0.56642656 -0.57954024 -0.58591302
vn -0.50074738 -0.69707208 -0.51316915
vn -0.50695231 -0.69278666 0.51288011
vn 0.50345753 0.67467510 -0.53976293
vn 0.50934013 0.67000393 0.54006237
vn -0.54718754 0.66955209 0.50228059
vn -0.55220435 0.66741221 -0.49963115
vn -0.92968347 0.26287769 0.25803870
vn -0.93047837 0.26329231 -0.25472958
vn -0.92701296 -0.27441652 -0.25562186
vn -0.92605730 -0.27563873 0.25776185
vn -0.28666992 -0.38022878 -0.87934432
vn -0.28937811 -0.38422716 0.87671535
vn -0.27434279 0.40197325 -0.87358659
vn -0.30141413 0.39931918 0.86584855
vn 0.59165247 -0.29668111 -0.74961835
vn 0.58518843 -0.30347169 0.75197037
vn 0.59339176 0.29121987 -0.75038471
vn 0.58270481 0.29325250 0.75793012
vn -0.84283273 -0.19956620 -0.49980628
vn -0.84160779 -0.19420497 0.50396503
vn -0.82575552 0.29414153 0.48125729
vn -0.81977405 0.29350179 -0.49175931
vn 0.74955985 -0.38161293 -0.54086190
vn 0.74820739 -0.37914166 0.54446056
vn 0.76473008 0.35945261 -0.53477260
vn 0.75813866 0.36648240 0.53936669
vn -0.56257747 -0.57916945 0.58997402
vn -0.56642656 -0.57954024 -0.58591302
vn 0.50074738 -0.69707208 -0.51316915
vn 0.50695231 -0.69278666 0.51288011
vn -0.50345753 0.67467510 -0.53976293
vn -0.50934013 0.67000393 0.54006237
vn 0.54718754 0.66955209 0.50228059
vn 0.55220435 0.66741221 -0.49963115
vn 0.92968347 0.26287769 0.25803870
vn 0.93047837 0.26329231 -0.25472958
vn 0.92701296 -0.27441652 -0.25562186
vn 0.92605730 -0.27563873 0.25776185
g pylon_pylon
usemtl pylon
s 1
f 1/67/1 3/68/3 12/50/12 9/49/9
f 2/31/2 10/44/10 11/45/11 4/32/4
f 3/10/3 7/20/7 15/23/15 12/12/12
f 4/11/4 11/9/11 16/2/16 8/6/8
f 6/104/6 14/95/14 10/110/10 2/109/2
f 7/91/7 3/82/3 1/77/1 5/89/5
f 8/78/8 6/81/6 2/90/2 4/88/4
f 8/41/8 16/30/16 14/28/14 6/42/6
f 9/85/9 13/98/13 5/92/5 1/86/1
f 9/84/9 18/83/18 19/87/19 13/97/13
f 10/44/10 17/43/17 18/48/18 9/49/9
f 11/45/11 10/44/10 9/49/9 12/50/12
f 11/8/11 22/7/22 23/5/23 16/1/16
f 12/50/12 21/47/21 22/46/22 11/45/11
f 13/16/13 15/18/15 7/4/7 5/3/5
f 13/17/13 19/15/19 20/26/20 14/27/14
f 13/36/13 27/40/27 26/61/26 15/65/15
f 14/96/14 20/105/20 17/112/17 10/111/10
f 14/33/14 28/37/28 27/39/27 13/35/13
f 15/24/15 24/22/24 21/14/21 12/13/12
f 15/66/15 26/62/26 25/60/25 16/64/16
f 16/29/16 23/25/23 24/21/24 15/19/15
f 16/63/16 25/59/25 28/38/28 14/34/14
f 17/52/17 20/51/20 19/69/19 18/70/18
f 21/80/21 24/79/24 23/93/23 22/94/22
f 26/102/26 27/101/27 28/106/28 25/107/25
f 29/86/29 33/92/33 41/98/41 37/85/37
f 30/109/30 38/110/38 42/95/42 34/104/34
f 32/88/32 30/90/30 34/81/34 36/78/36
f 32/32/32 39/45/39 38/44/38 30/31/30
f 33/89/33 29/77/29 31/82/31 35/91/35
f 33/3/33 35/4/35 43/18/43 41/16/41
f 34/42/34 42/28/42 44/30/44 36/41/36
f 36/6/36 44/2/44 39/9/39 32/11/32
f 37/49/37 40/50/40 31/68/31 29/67/29
f 37/49/37 46/48/46 45/43/45 38/44/38
f 38/111/38 45/112/45 48/105/48 42/96/42
f 39/45/39 50/46/50 49/47/49 40/50/40
f 40/50/40 37/49/37 38/44/38 39/45/39
f 40/12/40 43/23/43 35/20/35 31/10/31
f 40/13/40 49/14/49 52/22/52 43/24/43
f 41/97/41 47/87/47 46/83/46 37/84/37
f 41/35/41 55/39/55 56/37/56 42/33/42
f 42/27/42 48/26/48 47/15/47 41/17/41
f 42/34/42 56/38/56 53/59/53 44/63/44
f 43/19/43 52/21/52 51/25/51 44/29/44
f 43/65/43 54/61/54 55/40/55 41/36/41
f 44/1/44 51/5/51 50/7/50 39/8/39
f 44/64/44 53/60/53 54/62/54 43/66/43
f 46/72/46 47/71/47 48/53/48 45/54/45
f 50/94/50 51/93/51 52/79/52 49/80/49
f 53/108/53 56/106/56 55/99/55 54/102/54
f 57/67/57 59/68/59 68/50/68 65/49/65
f 58/31/58 66/44/66 67/45/67 60/32/60
f 59/10/59 63/20/63 71/23/71 68/12/68
f 60/11/60 67/9/67 72/2/72 64/6/64
f 62/104/62 70/95/70 66/110/66 58/109/58
f 63/91/63 59/82/59 57/77/57 61/89/61
f 64/78/64 62/81/62 58/90/58 60/88/60
f 64/41/64 72/30/72 70/28/70 62/42/62
f 65/85/65 69/98/69 61/92/61 57/86/57
f 65/84/65 74/83/74 75/87/75 69/97/69
f 66/44/66 73/43/73 74/48/74 65/49/65
f 67/45/67 66/44/66 65/49/65 68/50/68
f 67/8/67 78/7/78 79/5/79 72/1/72
f 68/50/68 77/47/77 78/46/78 67/45/67
f 69/16/69 71/18/71 63/4/63 61/3/61
f 69/17/69 75/15/75 76/26/76 70/27/70
f 69/36/69 83/40/83 82/61/82 71/65/71
f 70/96/70 76/105/76 73/112/73 66/111/66
f 70/33/70 84/37/84 83/39/83 69/35/69
f 71/24/71 80/22/80 77/14/77 68/13/68
f 71/66/71 82/62/82 81/60/81 72/64/72
f 72/29/72 79/25/79 80/21/80 71/19/71
f 72/63/72 81/59/81 84/38/84 70/34/70
f 73/56/73 76/55/76 75/73/75 74/74/74
f 77/80/77 80/79/80 79/93/79 78/94/78
f 82/102/82 83/101/83 84/106/84 81/107/81
f 85/86/85 89/92/89 97/98/97 93/85/93
f 86/109/86 94/110/94 98/95/98 90/104/90
f 88/88/88 86/90/86 90/81/90 92/78/92
f 88/32/88 95/45/95 94/44/94 86/31/86
f 89/89/89 85/77/85 87/82/87 91/91/91
f 89/3/89 91/4/91 99/18/99 97/16/97
f 90/42/90 98/28/98 100/30/100 92/41/92
f 92/6/92 100/2/100 95/9/95 88/11/88
f 93/49/93 96/50/96 87/68/87 85/67/85
f 93/49/93 102/48/102 101/43/101 94/44/94
f 94/111/94 101/112/101 104/105/104 98/96/98
f 95/45/95 106/46/106 105/47/105 96/50/96
f 96/50/96 93/49/93 94/44/94 95/45/95
f 96/12/96 99/23/99 91/20/91 87/10/87
f 96/13/96 105/14/105 108/22/108 99/24/99
f 97/97/97 103/87/103 102/83/102 93/84/93
f 97/35/97 111/39/111 112/37/112 98/33/98
f 98/27/98 104/26/104 103/15/103 97/17/97
f 98/34/98 112/38/112 109/59/109 100/63/100
f 99/19/99 108/21/108 107/25/107 100/29/100
f 99/65/99 110/61/110 111/40/111 97/36/97
f 100/1/100 107/5/107 106/7/106 95/8/95
f 100/64/100 109/60/109 110/62/110 99/66/99
f 102/76/102 103/75/103 104/57/104 101/58/101
f 106/94/106 107/93/107 108/79/108 105/80/105
f 109/108/109 112/106/112 111/100/111 110/103/110
